<svg xmlns="http://www.w3.org/2000/svg" width="181" height="50.393" viewBox="-75 -9.143 181 50.393" enable-background="new -75 -9.143 181 50.393"><g fill="#fff"><path d="M13.753 30.582h1.11l5.732 7.898v-7.898h.98v9.575h-.935l-5.905-8.13v8.13h-.984v-9.575zM24.02 30.582h6.337v.97h-5.315v3.162h5.188v.964h-5.188v3.55h5.362v.93H24.02v-9.576zM35.487 31.55h-3.593v-.968h8.212v.97h-3.598v8.605h-1.02V31.55zM41.35 30.582h1.044l2.52 7.928 2.575-7.928h.876l2.56 7.928 2.536-7.928h.98l-3.076 9.646h-.882L47.9 32.253l-2.57 7.975h-.894l-3.087-9.646zM55.358 35.364c0-3.413 1.747-4.94 4.812-4.94 3.075 0 4.834 1.527 4.834 4.94 0 3.424-1.76 4.956-4.834 4.956-3.065 0-4.812-1.532-4.812-4.956zm8.624.01c0-2.587-1.2-3.98-3.812-3.98-2.6 0-3.79 1.394-3.79 3.98 0 2.602 1.19 4 3.79 4 2.61 0 3.812-1.398 3.812-4zM70.952 36.258H68.08v3.9h-.993V30.58h4.14c2.222 0 3.226.894 3.226 2.79 0 1.655-.784 2.624-2.45 2.845l2.31 3.94H73.23l-2.278-3.9zm.284-.93c1.358 0 2.194-.417 2.194-1.926 0-1.49-.812-1.88-2.23-1.88h-3.12v3.807h3.156zM79.536 35.08l-1.915 2.095v2.982h-.992v-9.575h.993v5.287l4.853-5.288h1.172l-3.436 3.76 3.905 5.815H82.96l-3.424-5.078zM84.968 39.194l.517-.778c1.15.72 2.275.97 3.43.97 1.974 0 2.855-.558 2.855-1.875 0-1.356-1.138-1.554-2.855-1.86-2.07-.367-3.47-.715-3.47-2.653 0-1.846 1.19-2.57 3.47-2.57 1.497 0 2.57.336 3.33.853l-.545.823c-.685-.453-1.706-.743-2.786-.743-1.724 0-2.46.476-2.46 1.613 0 1.22.998 1.45 2.704 1.76 2.09.376 3.61.684 3.61 2.738 0 1.904-1.22 2.82-3.83 2.82-1.452 0-2.75-.295-3.97-1.096z"/></g><path fill="#fff" d="M102.78-9.016c-13.47 0-14.04 6.036-14.04 14.55v20.9h3.175v-20.9c0-6.418-.256-11.563 10.864-11.563 1.188 0 2.244.062 3.196.175v-3.027c-.974-.087-2.037-.134-3.197-.134zM-54.31 12.837V-8.316h3.24v21.218c0 6.097-.064 11.244 11.117 11.244 11.117 0 10.864-5.147 10.864-11.563v-20.9h3.178v20.9c0 8.516-.575 14.552-14.042 14.552-13.53 0-14.357-6.036-14.357-14.298zM7.86 5.278v21.154H4.617V5.215c0-6.1.064-11.245-11.117-11.245-11.116 0-10.86 5.145-10.86 11.563v20.9h-3.177v-20.9c0-8.513.572-14.548 14.04-14.548 13.53 0 14.356 6.035 14.356 14.293zM13.753-8.252h3.11v34.685h-3.11V-8.252zM22.685-8.252h16.238c8.056 0 11.706 4 11.706 11.117 0 7.162-3.605 11.517-11.748 11.517H25.795v12.05h-3.11V-8.25zM38.97 11.262c5.617 0 8.403-2.733 8.403-8.258 0-5.522-3.007-8.142-8.543-8.142H25.795v16.4H38.97zM54.244 8.964c0-10.23 2.925-18.107 16.018-18.107 13.528 0 13.975 9.082 13.91 18.675H57.367c.06 8.45 2.16 14.74 13.146 14.74 5.844 0 8.514-1.59 11.37-3.685l1.78 2.35c-3.175 2.352-6.924 4.197-13.15 4.197-13.72 0-16.268-7.945-16.268-18.17zm3.18-2.354h23.633c-.314-6.923-.76-12.83-10.865-12.83-9.715 0-12.384 5.27-12.767 12.83zM-73.816 33.96c13.467 0 14.04-6.036 14.04-14.55V-8.316h-3.176V19.41c0 6.413.252 11.566-10.864 11.566-.42 0-.818-.012-1.207-.03v2.996c.388.01.792.017 1.207.017zM98.873 26.583c-1.213 0-2.193-.98-2.193-2.193 0-1.207.98-2.188 2.193-2.188 1.207 0 2.188.98 2.188 2.188 0 1.213-.98 2.193-2.187 2.193zm0-4.103c-1.057 0-1.915.858-1.915 1.91 0 1.05.858 1.908 1.915 1.908 1.045 0 1.903-.86 1.903-1.91 0-1.05-.858-1.908-1.903-1.908zM99.013 24.686h-.708v.963h-.337v-2.52h1.126c.64 0 .882.268.882.76 0 .407-.174.69-.604.772l.57.986h-.373l-.557-.962zm.075-.32c.343 0 .54-.1.54-.464 0-.366-.187-.447-.546-.447h-.777v.91h.783z"/></svg>